<?xml version="1.0" encoding="utf-8"?>
<svg width="48" height="48" viewBox="0 0 48 48" fill="none" xmlns="http://www.w3.org/2000/svg">
  <rect width="48" height="48" rx="24" fill="black"/>
  <path d="M24 9C16.268 9 10 15.268 10 23C10 30.732 16.268 37 24 37C31.732 37 38 30.732 38 23C38 15.268 31.732 9 24 9ZM24 35C17.373 35 12 29.627 12 23C12 16.373 17.373 11 24 11C30.627 11 36 16.373 36 23C36 29.627 30.627 35 24 35Z" fill="white"/>
  <path d="M32.5 32.5L15.5 15.5" stroke="white" stroke-width="2"/>
</svg> 